<?xml version="1.0" encoding="UTF-8"?><svg id="Calque_1" xmlns="http://www.w3.org/2000/svg" viewBox="0 0 761.2 761.2"><defs><style>.cls-1{fill:#f7f7f7;}.cls-1,.cls-2{stroke:#f7f7f7;stroke-miterlimit:10;}.cls-2{fill:none;stroke-width:60px;}</style></defs><path class="cls-1" d="m306.5,380.4c0-37.3.2-74.6-.1-111.8,0-9.1,2.2-16.6,10.3-21.2,8.6-4.9,16.9-2.2,24.2,3.1,40.9,29.5,81.8,59.1,122.6,88.7,9.5,6.9,18.8,13.9,28.4,20.6,18.7,13,18.8,28.6.2,42.1-19.9,14.4-39.8,29-59.7,43.5-27.1,19.7-54.2,39.5-81.4,59.1-4.2,3.1-8.6,6-13.2,8.5-16.1,9-31.1.6-31.2-17.9-.3-38.2,0-76.4-.1-114.6Z"/><circle class="cls-2" cx="380.6" cy="380.6" r="350.6"/></svg>